<svg width="22" height="17" viewBox="0 0 22 17" fill="none" xmlns="http://www.w3.org/2000/svg">
<path fill-rule="evenodd" clip-rule="evenodd" d="M2.70455 1.54545C2.0644 1.54545 1.54545 2.0644 1.54545 2.70455V14.2955C1.54545 14.9356 2.0644 15.4545 2.70455 15.4545H18.9318C19.572 15.4545 20.0909 14.9356 20.0909 14.2955V2.70455C20.0909 2.0644 19.572 1.54545 18.9318 1.54545H2.70455ZM0 2.70455C0 1.21087 1.21087 0 2.70455 0H18.9318C20.4255 0 21.6364 1.21087 21.6364 2.70455V14.2955C21.6364 15.7891 20.4255 17 18.9318 17H2.70455C1.21087 17 0 15.7891 0 14.2955V2.70455Z" fill="#FF5E14"/>
<path fill-rule="evenodd" clip-rule="evenodd" d="M3.25369 3.38917C3.5157 3.05231 4.00118 2.99162 4.33805 3.25363L10.8182 8.29374L17.2983 3.25363C17.6352 2.99162 18.1207 3.05231 18.3827 3.38917C18.6447 3.72604 18.584 4.21153 18.2471 4.47354L11.2926 9.88263C11.0136 10.0997 10.6228 10.0997 10.3438 9.88263L3.38924 4.47354C3.05237 4.21153 2.99168 3.72604 3.25369 3.38917Z" fill="#FF5E14"/>
</svg>
