<svg width="16" height="26" viewBox="0 0 16 26" fill="none" xmlns="http://www.w3.org/2000/svg">
<path fill-rule="evenodd" clip-rule="evenodd" d="M12.8 1.6H3.2C2.77565 1.6 2.36869 1.76857 2.06863 2.06863C1.76857 2.36869 1.6 2.77565 1.6 3.2V22.4C1.6 22.8243 1.76857 23.2313 2.06863 23.5314C2.36869 23.8314 2.77565 24 3.2 24H12.8C13.2243 24 13.6313 23.8314 13.9314 23.5314C14.2314 23.2313 14.4 22.8243 14.4 22.4V3.2C14.4 2.77565 14.2314 2.36869 13.9314 2.06863C13.6313 1.76857 13.2243 1.6 12.8 1.6ZM3.2 0C2.35131 0 1.53737 0.337142 0.937258 0.937258C0.337142 1.53737 0 2.35131 0 3.2V22.4C0 23.2487 0.337142 24.0626 0.937258 24.6627C1.53737 25.2629 2.35131 25.6 3.2 25.6H12.8C13.6487 25.6 14.4626 25.2629 15.0627 24.6627C15.6629 24.0626 16 23.2487 16 22.4V3.2C16 2.35131 15.6629 1.53737 15.0627 0.937258C14.4626 0.337142 13.6487 0 12.8 0L3.2 0Z" fill="#FF5E14"/>
<path fill-rule="evenodd" clip-rule="evenodd" d="M8.00002 22.4C8.42437 22.4 8.83134 22.2314 9.13139 21.9313C9.43145 21.6313 9.60002 21.2243 9.60002 20.8C9.60002 20.3756 9.43145 19.9686 9.13139 19.6686C8.83134 19.3685 8.42437 19.2 8.00002 19.2C7.57568 19.2 7.16871 19.3685 6.86865 19.6686C6.5686 19.9686 6.40002 20.3756 6.40002 20.8C6.40002 21.2243 6.5686 21.6313 6.86865 21.9313C7.16871 22.2314 7.57568 22.4 8.00002 22.4Z" fill="#FF5E14"/>
</svg>
