<svg width="55" height="55" viewBox="0 0 55 55" fill="none" xmlns="http://www.w3.org/2000/svg">
<path d="M44.7334 8.86807C39.3634 7.66096 34.0433 7.26655 29.1566 7.34623C20.0222 7.48965 12.3916 9.29236 8.72703 10.5513C8.4814 9.7266 7.99213 8.80632 7.99213 8.09918C12.9947 6.15107 20.122 5.03359 28.8011 4.93399C29.2365 4.92802 29.6758 4.92603 30.1211 4.92603C35.2475 4.92603 40.262 5.3284 44.7334 6.05346C44.8352 6.73271 44.7334 8.39598 44.7334 8.86807Z" fill="#FF5E14"/>
<path d="M44.7333 6.05151C40.262 5.32645 35.2495 4.92407 30.1211 4.92407C29.6778 4.92407 29.2365 4.92607 28.8011 4.93204C20.122 5.03363 12.9947 6.14912 7.99213 8.09723C12.9727 3.09946 19.8704 0 27.501 0C28.5215 0 29.528 0.0557743 30.5165 0.163339C30.5165 0.163339 30.5165 0.163339 30.5185 0.163339C35.8666 0.746977 40.7533 2.85644 44.7333 6.05151Z" fill="#00366D"/>
<path d="M46.6105 46.5198C43.4273 47.5755 39.4971 48.3583 34.8421 48.8145C31.8066 49.1113 28.4596 49.2686 24.815 49.2686C20.1979 49.2686 15.2892 48.9997 10.6561 48.4639C10.6142 47.9599 11.1694 46.3604 11.4889 45.8425C16.9807 46.8723 23.3272 47.3643 29.8155 46.9759C34.9659 46.6712 40.2041 45.8086 45.1707 44.2211C45.5581 44.5398 46.5107 45.9819 46.6105 46.5198Z" fill="#FF5E14"/>
<path d="M46.6105 46.5198C45.0189 48.0516 43.2436 49.3922 41.3204 50.5076C37.2585 52.8661 32.5395 54.2166 27.503 54.2166C21.1525 54.2166 15.3072 52.0713 10.6581 48.4639C15.2912 48.9997 20.2019 49.2687 24.817 49.2687C28.4636 49.2687 31.8086 49.1113 34.8441 48.8145C39.4972 48.3583 43.4273 47.5755 46.6105 46.5198Z" fill="#00366D"/>
<path d="M54.7124 33.2973C54.7124 33.2973 52.7514 35.0801 51.8028 35.5004C51.8028 35.5004 49.1028 29.7417 34.6663 25.214C20.2298 20.6863 43.3674 22.6105 43.3674 22.6105L52.9171 29.5843L54.7124 33.2973Z" fill="#FF5E14"/>
<path d="M26.9219 23.4293C21.0426 21.9532 16.6492 20.8895 16.6492 17.4295C16.6991 14.3122 20.7011 13.3202 24.7511 12.4756C21.468 13.4735 19.3272 15.2065 19.3272 17.4076C19.3272 20.2362 21.9413 21.9453 26.9219 23.4293Z" fill="#FF5E14"/>
<path d="M55 29.3513C55 30.5903 54.9181 31.8094 54.7544 32.9985C54.7444 33.0981 54.7304 33.1977 54.7124 33.2973C54.1872 32.6918 53.5422 32.1181 52.7753 31.5743C49.3644 29.1421 43.4952 27.198 34.6663 25.2121L28.9748 23.9113C28.2539 23.748 27.5689 23.5906 26.9199 23.4273C21.9413 21.9453 19.3252 20.2342 19.3252 17.4037C19.3252 15.2046 21.466 13.4696 24.7471 12.4716C26.4566 12.117 28.3937 11.9238 30.4466 11.9238C30.6423 11.9238 30.842 11.9258 31.0437 11.9278C33.2544 11.9557 35.8446 12.1449 38.5585 12.5134C42.8921 13.109 47.5511 14.1648 51.4134 15.7922C52.3819 17.4873 53.1727 19.296 53.7639 21.1923C54.5667 23.7699 55 26.5108 55 29.3513Z" fill="#00366D"/>
<path d="M15.3192 33.1956L6.47836 25.941L0.684998 21.1882V19.4015C0.684998 19.4015 2.30259 18.4891 3.34903 18.019C3.4988 17.9533 3.6346 17.8936 3.75243 17.8497C3.75243 17.8497 8.95866 25.0088 22.5025 29.7317C34.872 34.0462 15.3192 33.1956 15.3192 33.1956Z" fill="#FF5E14"/>
<path d="M38.1192 37.1676C38.1192 40.4543 33.4441 42.9402 24.803 42.9402C23.8864 42.9402 22.9178 42.9123 21.9093 42.8546C19.1255 42.7032 16.0381 42.3486 12.9068 41.8407C9.96714 41.3706 6.99757 40.7611 4.19375 40.0659C1.53371 35.8469 0 30.8571 0 25.5068C0 23.4053 0.235649 21.3635 0.684979 19.4015C1.56367 21.1942 3.2212 22.728 5.58567 24.0905C9.43793 26.3075 15.1754 28.0644 22.5025 29.7317L27.6468 30.893C34.9659 32.5204 38.1192 33.9685 38.1192 37.1676Z" fill="#00366D"/>
<g opacity="0.3">
<path opacity="0.3" d="M44.7333 8.8681C39.3633 7.66099 34.0433 7.26659 29.1565 7.34626C28.9469 6.50766 28.827 5.69893 28.8031 4.93402C28.7392 3.04965 29.2404 1.4322 30.3747 0.300774C30.4227 0.252967 30.4706 0.209145 30.5185 0.16333C30.5185 0.16333 30.5185 0.16333 30.5205 0.16333C35.8665 0.746968 40.7533 2.85643 44.7333 6.0515C44.8352 6.73275 44.7333 8.39601 44.7333 8.8681Z" fill="white"/>
<path opacity="0.3" d="M53.7638 21.1943C53.5142 21.7361 53.1807 22.2221 52.7613 22.6424C50.978 24.4212 47.9864 24.6403 44.6514 23.5527C43.8366 23.2858 42.9999 22.9412 42.1551 22.5209C39.8865 21.3955 37.56 19.7322 35.4212 17.5988C33.6099 15.7961 32.1381 13.856 31.0437 11.9318C33.2544 11.9596 35.8445 12.1489 38.5585 12.5174C42.892 13.113 47.5511 14.1687 51.4133 15.7961C52.3819 17.4893 53.1727 19.298 53.7638 21.1943Z" fill="white"/>
</g>
<g opacity="0.3">
<path opacity="0.3" d="M12.9088 41.8406C9.96914 41.3705 6.99957 40.761 4.19574 40.0658C1.53371 35.8469 0 30.8571 0 25.5067C0 23.4052 0.235649 21.3635 0.684979 19.4014C0.684979 19.4014 2.30257 18.4891 3.34901 18.019C3.88022 19.8616 4.60114 21.9193 5.58567 24.0905C5.86126 24.702 6.15882 25.3175 6.47834 25.945C9.392 31.6479 14.1469 37.8787 21.9093 42.8545C19.1275 42.7031 16.0401 42.3466 12.9088 41.8406Z" fill="white"/>
<path opacity="0.3" d="M41.3184 50.5078C37.2565 52.8662 32.5375 54.2168 27.501 54.2168C21.1505 54.2168 15.3052 52.0714 10.6561 48.464C10.6142 47.9601 11.1694 46.3606 11.4889 45.8427C16.9807 46.8725 23.3272 47.3645 29.8156 46.9761C31.4012 47.6414 33.0727 48.2549 34.8441 48.8146C36.873 49.458 39.0298 50.0257 41.3184 50.5078Z" fill="white"/>
</g>
</svg>
