<svg width="22" height="22" viewBox="0 0 22 22" fill="none" xmlns="http://www.w3.org/2000/svg">
<path d="M15.6093 7.04858H14.4534C14.202 7.04858 13.9629 7.17037 13.8151 7.37914L9.9407 12.7972L8.1859 10.3417C8.03802 10.1354 7.80142 10.0111 7.54756 10.0111H6.39166C6.23146 10.0111 6.13781 10.195 6.23146 10.3268L9.30236 14.6215C9.37491 14.7236 9.47054 14.8068 9.58134 14.8642C9.69214 14.9216 9.8149 14.9515 9.93946 14.9515C10.064 14.9515 10.1868 14.9216 10.2976 14.8642C10.4084 14.8068 10.504 14.7236 10.5766 14.6215L15.767 7.36422C15.8631 7.2325 15.7695 7.04858 15.6093 7.04858Z" fill="#FF5E14"/>
<path d="M11 0C4.92545 0 0 4.92545 0 11C0 17.0746 4.92545 22 11 22C17.0746 22 22 17.0746 22 11C22 4.92545 17.0746 0 11 0ZM11 20.1339C5.9567 20.1339 1.86607 16.0433 1.86607 11C1.86607 5.9567 5.9567 1.86607 11 1.86607C16.0433 1.86607 20.1339 5.9567 20.1339 11C20.1339 16.0433 16.0433 20.1339 11 20.1339Z" fill="#FF5E14"/>
</svg>
