<svg width="28" height="28" viewBox="0 0 28 28" fill="none" xmlns="http://www.w3.org/2000/svg">
<path d="M22.7733 3.08077C20.497 2.71164 17.9452 2.5068 15.3344 2.5068C15.1087 2.5068 14.884 2.50781 14.6623 2.51086C10.2439 2.56258 6.61544 3.13046 4.06869 4.12223C6.60426 1.57791 10.1158 0 14.0005 0C14.52 0 15.0324 0.0283942 15.5357 0.0831544C15.5357 0.0831544 15.5357 0.0831544 15.5367 0.0831544C18.2593 0.380279 20.7471 1.45419 22.7733 3.08077Z" fill="#FF5E14"/>
<path d="M23.729 23.6827C22.9187 24.4626 22.0149 25.145 21.0358 25.7129C18.9679 26.9136 16.5656 27.6011 14.0015 27.6011C10.7685 27.6011 7.79275 26.509 5.42595 24.6725C7.78461 24.9453 10.2846 25.0822 12.6341 25.0822C14.4905 25.0822 16.1935 25.0021 17.7388 24.851C20.1076 24.6187 22.1084 24.2202 23.729 23.6827Z" fill="#FF5E14"/>
<path d="M28 14.9424C28 15.5732 27.9583 16.1938 27.875 16.7992C27.8699 16.8499 27.8628 16.9006 27.8536 16.9513C27.5862 16.643 27.2578 16.351 26.8674 16.0741C25.131 14.8359 22.143 13.8462 17.6483 12.8352L14.7508 12.173C14.3838 12.0898 14.0351 12.0097 13.7047 11.9266C11.1701 11.1721 9.83828 10.301 9.83828 8.85998C9.83828 7.74044 10.9281 6.85718 12.5985 6.34912C13.4688 6.16862 14.455 6.07025 15.5001 6.07025C15.5997 6.07025 15.7014 6.07127 15.8041 6.07228C16.9295 6.08648 18.2481 6.18281 19.6298 6.37042C21.836 6.67363 24.2078 7.21109 26.1741 8.03959C26.6672 8.90257 27.0698 9.82335 27.3707 10.7888C27.7794 12.101 28 13.4963 28 14.9424Z" fill="#FF5E14"/>
<path d="M19.4061 18.9217C19.4061 20.5949 17.0261 21.8605 12.627 21.8605C12.1603 21.8605 11.6673 21.8463 11.1538 21.8169C9.73661 21.7398 8.16485 21.5593 6.57071 21.3007C5.07418 21.0614 3.5624 20.7511 2.135 20.3972C0.7808 18.2494 0 15.7091 0 12.9853C0 11.9154 0.119967 10.876 0.348716 9.87714C0.79605 10.7898 1.63988 11.5706 2.84362 12.2643C4.80476 13.3929 7.72565 14.2874 11.4558 15.1361L14.0747 15.7274C17.8008 16.5559 19.4061 17.2931 19.4061 18.9217Z" fill="#FF5E14"/>
</svg>
