<svg width="61" height="58" viewBox="0 0 61 58" fill="none" xmlns="http://www.w3.org/2000/svg">
<path fill-rule="evenodd" clip-rule="evenodd" d="M7.625 3.79261H53.375C54.3861 3.79261 55.3559 4.19219 56.0708 4.90344C56.7858 5.61469 57.1875 6.57936 57.1875 7.58522V51.5264L49.5625 43.9412C48.1329 42.5186 46.1937 41.7192 44.1716 41.7187H7.625C6.61386 41.7187 5.64414 41.3191 4.92916 40.6079C4.21417 39.8966 3.8125 38.932 3.8125 37.9261V7.58522C3.8125 6.57936 4.21417 5.61469 4.92916 4.90344C5.64414 4.19219 6.61386 3.79261 7.625 3.79261ZM53.375 0C55.3973 0 57.3367 0.799155 58.7667 2.22166C60.1967 3.64417 61 5.5735 61 7.58522V56.1041C60.9999 56.4793 60.8879 56.8461 60.6782 57.158C60.4685 57.4699 60.1705 57.7128 59.8219 57.8562C59.4734 57.9995 59.0899 58.0368 58.72 57.9632C58.3501 57.8896 58.0105 57.7085 57.7441 57.4429L46.8671 46.6226C46.1522 45.9113 45.1827 45.5115 44.1716 45.5113H7.625C5.60272 45.5113 3.66328 44.7122 2.23331 43.2897C0.803346 41.8672 0 39.9378 0 37.9261V7.58522C0 5.5735 0.803346 3.64417 2.23331 2.22166C3.66328 0.799155 5.60272 0 7.625 0L53.375 0Z" fill="url(#paint0_linear)"/>
<path fill-rule="evenodd" clip-rule="evenodd" d="M26.9392 18.0527C26.1966 16.9022 25.0986 16.0226 23.8103 15.546C22.5221 15.0695 21.1131 15.0217 19.7953 15.41C18.4774 15.7982 17.3218 16.6015 16.5022 17.699C15.6826 18.7966 15.2432 20.1292 15.2501 21.4964C15.2508 22.6286 15.5571 23.7399 16.137 24.7141C16.717 25.6883 17.5493 26.4898 18.547 27.0346C19.5447 27.5795 20.6711 27.8479 21.8087 27.8117C22.9463 27.7755 24.0532 27.436 25.0139 26.8288C24.5145 28.3042 23.5842 29.8781 22.0516 31.4558C21.7583 31.7576 21.5976 32.1629 21.6048 32.5825C21.6119 33.0022 21.7864 33.4018 22.0897 33.6935C22.393 33.9852 22.8004 34.1451 23.2223 34.138C23.6441 34.1308 24.0458 33.9573 24.3391 33.6556C30.0045 27.8149 29.2686 21.4661 26.9392 18.0603V18.0527ZM42.1892 18.0527C41.4465 16.9022 40.3486 16.0226 39.0603 15.546C37.7721 15.0695 36.3631 15.0217 35.0453 15.41C33.7274 15.7982 32.5718 16.6015 31.7522 17.699C30.9326 18.7966 30.4932 20.1292 30.5001 21.4964C30.5008 22.6286 30.8071 23.7399 31.387 24.7141C31.967 25.6883 32.7993 26.4898 33.797 27.0346C34.7947 27.5795 35.9211 27.8479 37.0587 27.8117C38.1963 27.7755 39.3032 27.436 40.2639 26.8288C39.7645 28.3042 38.8342 29.8781 37.3016 31.4558C37.0083 31.7576 36.8476 32.1629 36.8548 32.5825C36.8619 33.0022 37.0364 33.4018 37.3397 33.6935C37.643 33.9852 38.0504 34.1451 38.4723 34.138C38.8941 34.1308 39.2958 33.9573 39.5891 33.6556C45.2544 27.8149 44.5186 21.4661 42.1892 18.0603V18.0527Z" fill="#FF5E14"/>
<defs>
<linearGradient id="paint0_linear" x1="0" y1="29" x2="61" y2="29" gradientUnits="userSpaceOnUse">
<stop stop-color="#00C9FF"/>
<stop offset="1" stop-color="#00366D"/>
</linearGradient>
</defs>
</svg>
