<svg width="278" height="98" viewBox="0 0 278 98" fill="none" xmlns="http://www.w3.org/2000/svg">
<g clip-path="url(#clip0)">
<path d="M123.742 59.8017C121.84 59.2508 120.312 58.5307 119.159 57.6485L121.184 53.1586C122.29 53.9688 123.602 54.6169 125.123 55.1101C126.643 55.5998 128.168 55.8446 129.688 55.8446C131.382 55.8446 132.636 55.5926 133.443 55.0885C134.254 54.5845 134.658 53.9183 134.658 53.083C134.658 52.4709 134.42 51.9596 133.941 51.5564C133.461 51.1531 132.849 50.8255 132.099 50.5806C131.35 50.3358 130.337 50.0657 129.061 49.7705C127.097 49.306 125.49 48.838 124.236 48.3735C122.986 47.909 121.908 47.1601 121.015 46.1303C120.117 45.1006 119.67 43.7252 119.67 42.0077C119.67 40.5135 120.074 39.1561 120.885 37.9427C121.696 36.7293 122.917 35.7643 124.55 35.055C126.182 34.3421 128.178 33.9893 130.535 33.9893C132.178 33.9893 133.789 34.1873 135.36 34.5761C136.932 34.9686 138.308 35.5339 139.486 36.2684L137.645 40.7943C135.263 39.4441 132.881 38.7708 130.503 38.7708C128.834 38.7708 127.598 39.0408 126.802 39.5809C126.006 40.121 125.606 40.8303 125.606 41.7161C125.606 42.5982 126.067 43.2571 126.986 43.6856C127.905 44.114 129.31 44.5389 131.202 44.9566C133.166 45.4246 134.773 45.8891 136.027 46.3536C137.277 46.8216 138.351 47.5562 139.249 48.5607C140.146 49.5653 140.593 50.9299 140.593 52.6438C140.593 54.1164 140.182 55.4594 139.36 56.6728C138.539 57.8862 137.303 58.8511 135.659 59.5604C134.013 60.2733 132.013 60.6262 129.656 60.6262C127.616 60.6298 125.645 60.3525 123.742 59.8017Z" fill="#00235A"/>
<path d="M162.704 35.5699C164.387 36.3296 165.681 37.4098 166.589 38.8068C167.497 40.2038 167.951 41.8601 167.951 43.7756C167.951 45.6659 167.497 47.3149 166.589 48.7263C165.681 50.1378 164.383 51.2179 162.704 51.9632C161.021 52.7122 159.039 53.0866 156.758 53.0866H151.566V60.1869H145.598V34.4321H156.755C159.039 34.4321 161.021 34.8102 162.704 35.5699ZM160.513 47.0701C161.446 46.296 161.911 45.2014 161.911 43.7756C161.911 42.3282 161.446 41.2192 160.513 40.4451C159.58 39.6709 158.218 39.2857 156.427 39.2857H151.566V48.2259H156.427C158.218 48.2295 159.58 47.8442 160.513 47.0701Z" fill="#00235A"/>
<path d="M196.751 34.4321V60.1869H190.783V49.6265H179.071V60.1869H173.104V34.4321H179.071V44.5893H190.783V34.4321H196.751Z" fill="#00235A"/>
<path d="M223.741 55.4054V60.1869H203.781V34.4321H223.262V39.2173H209.709V44.8089H221.676V49.4465H209.709V55.409H223.741V55.4054Z" fill="#00235A"/>
<path d="M245.838 60.1869L240.865 53.011H240.57H235.377V60.1869H229.41V34.4321H240.566C242.851 34.4321 244.833 34.8138 246.512 35.5735C248.195 36.3332 249.489 37.4134 250.397 38.8104C251.305 40.2074 251.759 41.8637 251.759 43.7792C251.759 45.6911 251.298 47.3437 250.379 48.7299C249.456 50.1162 248.152 51.1783 246.458 51.9128L252.238 60.1905H245.838V60.1869ZM244.328 40.4487C243.395 39.6745 242.033 39.2893 240.242 39.2893H235.381V48.2691H240.242C242.033 48.2691 243.395 47.8766 244.328 47.0917C245.262 46.3068 245.726 45.2014 245.726 43.7792C245.726 42.3282 245.262 41.2192 244.328 40.4487Z" fill="#00235A"/>
<path d="M277.358 55.4054V60.1869H257.402V34.4321H276.883V39.2173H263.33V44.8089H275.297V49.4465H263.33V55.409H277.358V55.4054Z" fill="#00235A"/>
<path d="M123.382 71.5C122.521 71.2515 121.897 70.9491 121.505 70.589C121.112 70.229 120.917 69.7861 120.917 69.2568C120.917 68.6591 121.155 68.1623 121.634 67.7734C122.114 67.3809 122.734 67.1865 123.501 67.1865C124.024 67.1865 124.488 67.2873 124.899 67.489C125.306 67.6906 125.624 67.9678 125.851 68.3243C126.074 68.6771 126.186 69.066 126.186 69.4873H125.177C125.177 69.0264 125.029 68.6663 124.737 68.3999C124.445 68.1371 124.031 68.0038 123.501 68.0038C123.007 68.0038 122.622 68.1119 122.344 68.3315C122.067 68.5511 121.93 68.85 121.93 69.2388C121.93 69.5485 122.06 69.8113 122.323 70.0238C122.586 70.2362 123.033 70.4342 123.663 70.6106C124.294 70.7871 124.788 70.9851 125.144 71.1975C125.501 71.41 125.764 71.662 125.937 71.9465C126.11 72.2309 126.197 72.5657 126.197 72.9546C126.197 73.5703 125.955 74.0636 125.476 74.4344C124.997 74.8053 124.352 74.9889 123.548 74.9889C123.025 74.9889 122.539 74.8881 122.085 74.6901C121.631 74.4884 121.285 74.2148 121.04 73.8692C120.795 73.5199 120.672 73.1274 120.672 72.6846H121.681C121.681 73.1418 121.851 73.5055 122.189 73.7719C122.528 74.0384 122.982 74.1716 123.548 74.1716C124.078 74.1716 124.481 74.0636 124.766 73.8475C125.047 73.6315 125.188 73.3399 125.188 72.9654C125.188 72.5946 125.058 72.3065 124.795 72.1013C124.539 71.8996 124.067 71.698 123.382 71.5Z" fill="#666666"/>
<path d="M129.598 74.2005C129.944 74.2005 130.243 74.096 130.503 73.8872C130.759 73.6784 130.903 73.4191 130.932 73.1059H131.847C131.829 73.4299 131.717 73.736 131.512 74.0276C131.306 74.3193 131.032 74.5533 130.69 74.7261C130.348 74.899 129.984 74.9854 129.602 74.9854C128.834 74.9854 128.222 74.7297 127.768 74.2149C127.314 73.7036 127.087 73.0015 127.087 72.1085V71.9465C127.087 71.3956 127.187 70.9095 127.389 70.4811C127.591 70.0526 127.879 69.7214 128.258 69.4837C128.636 69.2461 129.083 69.1309 129.598 69.1309C130.232 69.1309 130.759 69.3217 131.177 69.6997C131.595 70.0778 131.818 70.5711 131.847 71.176H130.932C130.903 70.8123 130.766 70.5099 130.517 70.2758C130.269 70.0418 129.962 69.923 129.595 69.923C129.105 69.923 128.723 70.0994 128.452 70.4523C128.182 70.8051 128.049 71.3164 128.049 71.9825V72.1661C128.049 72.8178 128.182 73.3183 128.452 73.6676C128.719 74.0276 129.101 74.2005 129.598 74.2005Z" fill="#666666"/>
<path d="M132.935 67.7446C132.935 67.5898 132.982 67.4566 133.079 67.3485C133.177 67.2405 133.317 67.1865 133.505 67.1865C133.692 67.1865 133.836 67.2405 133.933 67.3485C134.031 67.4566 134.081 67.5898 134.081 67.7446C134.081 67.903 134.031 68.0327 133.933 68.1371C133.836 68.2415 133.692 68.2919 133.505 68.2919C133.317 68.2919 133.173 68.2415 133.079 68.1371C132.982 68.0327 132.935 67.8994 132.935 67.7446ZM133.98 74.8845H133.014V69.2388H133.98V74.8845Z" fill="#666666"/>
<path d="M137.868 74.9891C137.104 74.9891 136.481 74.7371 135.998 74.2366C135.519 73.7361 135.277 73.0628 135.277 72.2203V72.0438C135.277 71.4858 135.386 70.9853 135.598 70.546C135.811 70.1067 136.11 69.7611 136.495 69.5126C136.881 69.2642 137.295 69.1382 137.746 69.1382C138.481 69.1382 139.05 69.3794 139.458 69.8619C139.865 70.3444 140.067 71.0357 140.067 71.9394V72.3427H136.24C136.254 72.8972 136.416 73.3472 136.726 73.6929C137.036 74.035 137.432 74.2078 137.915 74.2078C138.258 74.2078 138.546 74.1394 138.78 73.9989C139.018 73.8585 139.223 73.6749 139.4 73.4445L139.991 73.9017C139.526 74.6254 138.816 74.9891 137.868 74.9891ZM137.75 69.9303C137.36 69.9303 137.032 70.0707 136.769 70.3552C136.506 70.6396 136.341 71.0357 136.279 71.547H139.108V71.4749C139.079 70.9853 138.949 70.6036 138.712 70.3336C138.474 70.0635 138.153 69.9303 137.75 69.9303Z" fill="#666666"/>
<path d="M142.103 69.2426L142.135 69.9519C142.567 69.4082 143.13 69.1382 143.825 69.1382C145.018 69.1382 145.62 69.8115 145.63 71.1581V74.8883H144.665V71.1545C144.661 70.7476 144.567 70.4452 144.384 70.2508C144.2 70.0563 143.915 69.9591 143.53 69.9591C143.216 69.9591 142.942 70.0419 142.704 70.2111C142.467 70.3768 142.283 70.5964 142.149 70.8701V74.8919H141.184V69.2462H142.103V69.2426Z" fill="#666666"/>
<path d="M148.398 67.8742V69.2424H149.454V69.9877H148.398V73.4911C148.398 73.7179 148.445 73.8871 148.539 73.9988C148.632 74.1104 148.794 74.168 149.018 74.168C149.13 74.168 149.281 74.1464 149.475 74.1068V74.8845C149.22 74.9529 148.975 74.9889 148.733 74.9889C148.301 74.9889 147.976 74.8593 147.757 74.5964C147.537 74.3372 147.429 73.9664 147.429 73.4839V69.9841H146.402V69.2388H147.429V67.8706H148.398V67.8742Z" fill="#666666"/>
<path d="M150.585 67.7446C150.585 67.5898 150.632 67.4566 150.73 67.3485C150.827 67.2405 150.967 67.1865 151.155 67.1865C151.342 67.1865 151.486 67.2405 151.584 67.3485C151.681 67.4566 151.731 67.5898 151.731 67.7446C151.731 67.903 151.681 68.0327 151.584 68.1371C151.486 68.2415 151.342 68.2919 151.155 68.2919C150.967 68.2919 150.823 68.2415 150.73 68.1371C150.632 68.0327 150.585 67.8994 150.585 67.7446ZM151.63 74.8845H150.665V69.2388H151.63V74.8845Z" fill="#666666"/>
<path d="M153.652 74.8846V69.9878H152.758V69.2425H153.652V68.6628C153.652 68.0579 153.814 67.5898 154.138 67.2586C154.463 66.9273 154.92 66.7617 155.511 66.7617C155.735 66.7617 155.955 66.7905 156.174 66.8481L156.12 67.6259C155.958 67.5935 155.782 67.579 155.598 67.579C155.284 67.579 155.043 67.6727 154.874 67.8527C154.704 68.0363 154.618 68.2992 154.618 68.6412V69.2389H155.825V69.9842H154.618V74.881H153.652V74.8846Z" fill="#666666"/>
<path d="M156.892 67.7446C156.892 67.5898 156.939 67.4566 157.036 67.3485C157.133 67.2405 157.274 67.1865 157.461 67.1865C157.648 67.1865 157.793 67.2405 157.89 67.3485C157.987 67.4566 158.038 67.5898 158.038 67.7446C158.038 67.903 157.987 68.0327 157.89 68.1371C157.793 68.2415 157.648 68.2919 157.461 68.2919C157.274 68.2919 157.129 68.2415 157.036 68.1371C156.939 68.0327 156.892 67.8994 156.892 67.7446ZM157.937 74.8845H156.971V69.2388H157.937V74.8845Z" fill="#666666"/>
<path d="M161.749 74.2005C162.095 74.2005 162.394 74.096 162.654 73.8872C162.91 73.6784 163.054 73.4191 163.083 73.1059H163.994C163.976 73.4299 163.865 73.736 163.659 74.0276C163.454 74.3193 163.18 74.5533 162.838 74.7261C162.495 74.899 162.131 74.9854 161.749 74.9854C160.978 74.9854 160.369 74.7297 159.915 74.2149C159.461 73.7036 159.234 73.0015 159.234 72.1085V71.9465C159.234 71.3956 159.335 70.9095 159.537 70.4811C159.738 70.0526 160.027 69.7214 160.405 69.4837C160.783 69.2461 161.23 69.1309 161.746 69.1309C162.38 69.1309 162.906 69.3217 163.324 69.6997C163.742 70.0778 163.965 70.5711 163.994 71.176H163.083C163.054 70.8123 162.917 70.5099 162.668 70.2758C162.419 70.0418 162.113 69.923 161.746 69.923C161.256 69.923 160.874 70.0994 160.603 70.4523C160.333 70.8051 160.2 71.3164 160.2 71.9825V72.1661C160.2 72.8178 160.333 73.3183 160.603 73.6676C160.866 74.0276 161.248 74.2005 161.749 74.2005Z" fill="#666666"/>
<path d="M171.212 74.8847C171.158 74.7731 171.111 74.575 171.075 74.2906C170.625 74.7551 170.091 74.9891 169.468 74.9891C168.91 74.9891 168.455 74.8307 168.099 74.5174C167.742 74.2042 167.565 73.8045 167.565 73.322C167.565 72.7351 167.789 72.2779 168.236 71.9538C168.682 71.6298 169.313 71.4678 170.124 71.4678H171.064V71.0249C171.064 70.6864 170.964 70.42 170.762 70.2184C170.56 70.0203 170.261 69.9195 169.868 69.9195C169.522 69.9195 169.234 70.0059 169.003 70.1787C168.769 70.3516 168.654 70.564 168.654 70.8088H167.684C167.684 70.528 167.785 70.2544 167.983 69.9915C168.185 69.7287 168.455 69.5198 168.798 69.3686C169.14 69.2174 169.519 69.1382 169.929 69.1382C170.582 69.1382 171.09 69.3002 171.457 69.6243C171.825 69.9483 172.019 70.3984 172.03 70.9673V73.5633C172.03 74.0818 172.095 74.4922 172.228 74.7983V74.8811H171.212V74.8847ZM169.609 74.1502C169.911 74.1502 170.2 74.071 170.47 73.9161C170.74 73.7613 170.938 73.5561 171.061 73.3076V72.1483H170.304C169.122 72.1483 168.531 72.4939 168.531 73.1852C168.531 73.4877 168.632 73.7253 168.834 73.8945C169.032 74.0638 169.291 74.1502 169.609 74.1502Z" fill="#666666"/>
<path d="M174.455 69.2426L174.488 69.9519C174.92 69.4082 175.482 69.1382 176.178 69.1382C177.371 69.1382 177.972 69.8115 177.983 71.1581V74.8883H177.017V71.1545C177.014 70.7476 176.92 70.4452 176.74 70.2508C176.556 70.0563 176.272 69.9591 175.886 69.9591C175.572 69.9591 175.299 70.0419 175.061 70.2111C174.823 70.3768 174.639 70.5964 174.506 70.8701V74.8919H173.54V69.2462H174.455V69.2426Z" fill="#666666"/>
<path d="M179.205 72.0148C179.205 71.1507 179.41 70.4522 179.821 69.9265C180.232 69.4008 180.769 69.1344 181.435 69.1344C182.095 69.1344 182.621 69.3612 183.007 69.8113V66.8696H183.972V74.8809H183.086L183.039 74.276C182.653 74.7477 182.116 74.9853 181.425 74.9853C180.769 74.9853 180.235 74.7189 179.825 74.1824C179.414 73.6459 179.205 72.9474 179.205 72.0868V72.0148ZM180.171 72.1264C180.171 72.7673 180.304 73.2678 180.567 73.6279C180.83 73.9879 181.198 74.1716 181.662 74.1716C182.275 74.1716 182.722 73.8979 183.003 73.347V70.7546C182.715 70.2217 182.271 69.9553 181.673 69.9553C181.201 69.9553 180.83 70.1389 180.567 70.5026C180.304 70.8699 180.171 71.4099 180.171 72.1264Z" fill="#666666"/>
<path d="M192.563 71.3741H189.27V74.0673H193.097V74.8846H188.268V67.291H193.046V68.1083H189.27V70.5531H192.563V71.3741Z" fill="#666666"/>
<path d="M195.107 69.2426L195.14 69.9519C195.572 69.4082 196.134 69.1382 196.83 69.1382C198.023 69.1382 198.624 69.8115 198.635 71.1581V74.8883H197.669V71.1545C197.666 70.7476 197.572 70.4452 197.392 70.2508C197.208 70.0563 196.924 69.9591 196.538 69.9591C196.224 69.9591 195.951 70.0419 195.713 70.2111C195.475 70.3768 195.291 70.5964 195.158 70.8701V74.8919H194.192V69.2462H195.107V69.2426Z" fill="#666666"/>
<path d="M199.864 72.0152C199.864 71.1367 200.069 70.4346 200.477 69.9161C200.884 69.3976 201.424 69.1348 202.095 69.1348C202.783 69.1348 203.32 69.3796 203.709 69.8657L203.756 69.2392H204.639V74.748C204.639 75.479 204.423 76.055 203.99 76.4763C203.558 76.8976 202.974 77.1064 202.242 77.1064C201.835 77.1064 201.435 77.02 201.046 76.8472C200.657 76.6743 200.358 76.4367 200.152 76.1343L200.653 75.5546C201.068 76.0658 201.572 76.3215 202.174 76.3215C202.642 76.3215 203.01 76.1883 203.273 75.9254C203.536 75.6626 203.666 75.2881 203.666 74.8092V74.3232C203.28 74.7696 202.754 74.9893 202.084 74.9893C201.421 74.9893 200.887 74.7228 200.48 74.19C200.066 73.6607 199.864 72.9334 199.864 72.0152ZM200.833 72.1268C200.833 72.7641 200.963 73.2646 201.226 73.6283C201.486 73.9919 201.853 74.1719 202.322 74.1719C202.931 74.1719 203.377 73.8947 203.662 73.3438V70.7658C203.367 70.2257 202.923 69.9557 202.332 69.9557C201.864 69.9557 201.496 70.1393 201.23 70.503C200.967 70.8702 200.833 71.4103 200.833 72.1268Z" fill="#666666"/>
<path d="M206.095 67.7446C206.095 67.5898 206.141 67.4566 206.239 67.3485C206.336 67.2405 206.477 67.1865 206.664 67.1865C206.851 67.1865 206.995 67.2405 207.093 67.3485C207.19 67.4566 207.24 67.5898 207.24 67.7446C207.24 67.903 207.19 68.0327 207.093 68.1371C206.995 68.2415 206.851 68.2919 206.664 68.2919C206.477 68.2919 206.332 68.2415 206.239 68.1371C206.145 68.0327 206.095 67.8994 206.095 67.7446ZM207.14 74.8845H206.174V69.2388H207.14V74.8845Z" fill="#666666"/>
<path d="M209.597 69.2426L209.63 69.9519C210.062 69.4082 210.624 69.1382 211.32 69.1382C212.512 69.1382 213.114 69.8115 213.125 71.1581V74.8883H212.159V71.1545C212.156 70.7476 212.062 70.4452 211.882 70.2508C211.698 70.0563 211.413 69.9591 211.028 69.9591C210.714 69.9591 210.44 70.0419 210.203 70.2111C209.965 70.3768 209.781 70.5964 209.648 70.8701V74.8919H208.682V69.2462H209.597V69.2426Z" fill="#666666"/>
<path d="M216.927 74.9891C216.163 74.9891 215.539 74.7371 215.057 74.2366C214.577 73.7361 214.336 73.0628 214.336 72.2203V72.0438C214.336 71.4858 214.444 70.9853 214.657 70.546C214.869 70.1067 215.168 69.7611 215.554 69.5126C215.939 69.2642 216.354 69.1382 216.804 69.1382C217.539 69.1382 218.109 69.3794 218.516 69.8619C218.923 70.3444 219.129 71.0357 219.129 71.9394V72.3427H215.302C215.316 72.8972 215.478 73.3472 215.788 73.6929C216.098 74.035 216.494 74.2078 216.977 74.2078C217.32 74.2078 217.608 74.1394 217.842 73.9989C218.08 73.8585 218.285 73.6749 218.462 73.4445L219.053 73.9017C218.584 74.6254 217.875 74.9891 216.927 74.9891ZM216.808 69.9303C216.419 69.9303 216.091 70.0707 215.828 70.3552C215.565 70.6396 215.399 71.0357 215.338 71.547H218.166V71.4749C218.138 70.9853 218.004 70.6036 217.77 70.3336C217.532 70.0635 217.212 69.9303 216.808 69.9303Z" fill="#666666"/>
<path d="M222.592 74.9891C221.828 74.9891 221.204 74.7371 220.721 74.2366C220.242 73.7361 220.001 73.0628 220.001 72.2203V72.0438C220.001 71.4858 220.109 70.9853 220.321 70.546C220.534 70.1067 220.833 69.7611 221.219 69.5126C221.604 69.2642 222.019 69.1382 222.469 69.1382C223.204 69.1382 223.774 69.3794 224.181 69.8619C224.588 70.3444 224.793 71.0357 224.793 71.9394V72.3427H220.97C220.984 72.8972 221.147 73.3472 221.457 73.6929C221.766 74.035 222.163 74.2078 222.646 74.2078C222.988 74.2078 223.276 74.1394 223.511 73.9989C223.748 73.8585 223.954 73.6749 224.13 73.4445L224.721 73.9017C224.249 74.6254 223.539 74.9891 222.592 74.9891ZM222.473 69.9303C222.084 69.9303 221.756 70.0707 221.493 70.3552C221.229 70.6396 221.064 71.0357 221.002 71.547H223.831V71.4749C223.802 70.9853 223.669 70.6036 223.435 70.3336C223.197 70.0635 222.876 69.9303 222.473 69.9303Z" fill="#666666"/>
<path d="M228.642 70.1069C228.494 70.0817 228.336 70.0709 228.166 70.0709C227.532 70.0709 227.103 70.341 226.876 70.8774V74.8848H225.911V69.2392H226.851L226.865 69.8909C227.183 69.3868 227.629 69.1348 228.213 69.1348C228.401 69.1348 228.545 69.16 228.642 69.2068V70.1069Z" fill="#666666"/>
<path d="M229.536 67.7446C229.536 67.5898 229.583 67.4566 229.68 67.3485C229.777 67.2405 229.918 67.1865 230.105 67.1865C230.292 67.1865 230.437 67.2405 230.534 67.3485C230.631 67.4566 230.682 67.5898 230.682 67.7446C230.682 67.903 230.631 68.0327 230.534 68.1371C230.437 68.2415 230.292 68.2919 230.105 68.2919C229.918 68.2919 229.774 68.2415 229.68 68.1371C229.583 68.0327 229.536 67.8994 229.536 67.7446ZM230.581 74.8845H229.615V69.2388H230.581V74.8845Z" fill="#666666"/>
<path d="M233.038 69.2426L233.071 69.9519C233.503 69.4082 234.065 69.1382 234.761 69.1382C235.954 69.1382 236.555 69.8115 236.566 71.1581V74.8883H235.6V71.1545C235.597 70.7476 235.503 70.4452 235.323 70.2508C235.139 70.0563 234.855 69.9591 234.469 69.9591C234.155 69.9591 233.882 70.0419 233.644 70.2111C233.406 70.3768 233.222 70.5964 233.089 70.8701V74.8919H232.123V69.2462H233.038V69.2426Z" fill="#666666"/>
<path d="M237.795 72.0152C237.795 71.1367 238 70.4346 238.408 69.9161C238.815 69.3976 239.355 69.1348 240.026 69.1348C240.714 69.1348 241.251 69.3796 241.64 69.8657L241.687 69.2392H242.57V74.748C242.57 75.479 242.354 76.055 241.921 76.4763C241.489 76.8976 240.905 77.1064 240.173 77.1064C239.766 77.1064 239.366 77.02 238.977 76.8472C238.588 76.6743 238.289 76.4367 238.083 76.1343L238.584 75.5546C238.999 76.0658 239.503 76.3215 240.105 76.3215C240.573 76.3215 240.941 76.1883 241.204 75.9254C241.467 75.6626 241.597 75.2881 241.597 74.8092V74.3232C241.211 74.7696 240.685 74.9893 240.015 74.9893C239.352 74.9893 238.818 74.7228 238.411 74.19C238 73.6607 237.795 72.9334 237.795 72.0152ZM238.764 72.1268C238.764 72.7641 238.894 73.2646 239.157 73.6283C239.417 73.9919 239.784 74.1719 240.253 74.1719C240.862 74.1719 241.308 73.8947 241.593 73.3438V70.7658C241.298 70.2257 240.854 69.9557 240.263 69.9557C239.795 69.9557 239.427 70.1393 239.161 70.503C238.898 70.8702 238.764 71.4103 238.764 72.1268Z" fill="#666666"/>
<path d="M252.411 72.4759C252.317 73.2789 252.022 73.8982 251.521 74.3338C251.02 74.7695 250.357 74.9891 249.528 74.9891C248.631 74.9891 247.91 74.6687 247.37 74.0242C246.829 73.3797 246.559 72.5191 246.559 71.4426V70.7117C246.559 70.0059 246.685 69.3867 246.937 68.8502C247.19 68.3137 247.546 67.9032 248.011 67.6152C248.472 67.3271 249.009 67.1831 249.618 67.1831C250.426 67.1831 251.074 67.4099 251.561 67.86C252.047 68.3101 252.332 68.933 252.411 69.7287H251.402C251.316 69.1238 251.125 68.6809 250.836 68.4109C250.544 68.1409 250.141 68.004 249.618 68.004C248.977 68.004 248.476 68.2417 248.112 68.7133C247.748 69.185 247.568 69.8619 247.568 70.7333V71.4678C247.568 72.2923 247.741 72.9476 248.083 73.4373C248.429 73.9234 248.908 74.1682 249.528 74.1682C250.087 74.1682 250.512 74.0422 250.811 73.7901C251.11 73.5381 251.305 73.0988 251.402 72.4723H252.411V72.4759Z" fill="#666666"/>
<path d="M255.971 74.9891C255.207 74.9891 254.584 74.7371 254.101 74.2366C253.622 73.7361 253.38 73.0628 253.38 72.2203V72.0438C253.38 71.4858 253.489 70.9853 253.701 70.546C253.914 70.1067 254.213 69.7611 254.598 69.5126C254.984 69.2642 255.398 69.1382 255.849 69.1382C256.584 69.1382 257.153 69.3794 257.561 69.8619C257.968 70.3444 258.173 71.0357 258.173 71.9394V72.3427H254.346C254.361 72.8972 254.523 73.3472 254.833 73.6929C255.143 74.035 255.539 74.2078 256.022 74.2078C256.364 74.2078 256.652 74.1394 256.887 73.9989C257.125 73.8585 257.33 73.6749 257.507 73.4445L258.097 73.9017C257.629 74.6254 256.919 74.9891 255.971 74.9891ZM255.852 69.9303C255.463 69.9303 255.135 70.0707 254.872 70.3552C254.609 70.6396 254.443 71.0357 254.382 71.547H257.211V71.4749C257.182 70.9853 257.052 70.6036 256.815 70.3336C256.577 70.0635 256.256 69.9303 255.852 69.9303Z" fill="#666666"/>
<path d="M260.206 69.2426L260.238 69.9519C260.67 69.4082 261.233 69.1382 261.928 69.1382C263.121 69.1382 263.723 69.8115 263.733 71.1581V74.8883H262.768V71.1545C262.764 70.7476 262.67 70.4452 262.487 70.2508C262.303 70.0563 262.018 69.9591 261.633 69.9591C261.319 69.9591 261.045 70.0419 260.807 70.2111C260.57 70.3768 260.386 70.5964 260.252 70.8701V74.8919H259.287V69.2462H260.206V69.2426Z" fill="#666666"/>
<path d="M266.505 67.8742V69.2424H267.56V69.9877H266.505V73.4911C266.505 73.7179 266.551 73.8871 266.645 73.9988C266.739 74.1104 266.901 74.168 267.124 74.168C267.236 74.168 267.387 74.1464 267.582 74.1068V74.8845C267.326 74.9529 267.081 74.9889 266.84 74.9889C266.407 74.9889 266.083 74.8593 265.863 74.5964C265.643 74.3372 265.535 73.9664 265.535 73.4839V69.9841H264.508V69.2388H265.535V67.8706H266.505V67.8742Z" fill="#666666"/>
<path d="M271.416 70.1069C271.268 70.0817 271.11 70.0709 270.941 70.0709C270.306 70.0709 269.878 70.341 269.65 70.8774V74.8848H268.685V69.2392H269.625L269.64 69.8909C269.957 69.3868 270.404 69.1348 270.987 69.1348C271.175 69.1348 271.319 69.16 271.416 69.2068V70.1069Z" fill="#666666"/>
<path d="M274.548 74.9891C273.784 74.9891 273.16 74.7371 272.678 74.2366C272.198 73.7361 271.957 73.0628 271.957 72.2203V72.0438C271.957 71.4858 272.065 70.9853 272.278 70.546C272.49 70.1067 272.789 69.7611 273.175 69.5126C273.56 69.2642 273.975 69.1382 274.425 69.1382C275.16 69.1382 275.73 69.3794 276.137 69.8619C276.544 70.3444 276.75 71.0357 276.75 71.9394V72.3427H272.923C272.937 72.8972 273.099 73.3472 273.409 73.6929C273.719 74.035 274.115 74.2078 274.598 74.2078C274.941 74.2078 275.229 74.1394 275.463 73.9989C275.701 73.8585 275.906 73.6749 276.083 73.4445L276.674 73.9017C276.205 74.6254 275.496 74.9891 274.548 74.9891ZM274.429 69.9303C274.04 69.9303 273.712 70.0707 273.449 70.3552C273.186 70.6396 273.02 71.0357 272.959 71.547H275.787V71.4749C275.759 70.9853 275.629 70.6036 275.391 70.3336C275.15 70.0635 274.832 69.9303 274.429 69.9303Z" fill="#666666"/>
<path d="M80.7197 16.0298C71.0297 13.8479 61.4298 13.135 52.6119 13.279C36.1293 13.5382 22.3601 16.7967 15.7475 19.0723C15.3043 17.5816 14.4214 15.9182 14.4214 14.64C23.4483 11.1186 36.3094 9.09873 51.9705 8.9187C52.7561 8.9079 53.5488 8.9043 54.3524 8.9043C63.6028 8.9043 72.6513 9.63161 80.7197 10.9422C80.9034 12.17 80.7197 15.1765 80.7197 16.0298Z" fill="#FF5E14"/>
<path d="M80.7197 10.9385C72.6513 9.62789 63.6064 8.90058 54.3524 8.90058C53.5524 8.90058 52.7561 8.90418 51.9705 8.91498C36.3094 9.09861 23.4483 11.1149 14.4214 14.6363C23.4087 5.60247 35.8554 0 49.6246 0C51.466 0 53.2822 0.100816 55.0659 0.295246C55.0659 0.295246 55.0659 0.295246 55.0695 0.295246C64.7199 1.35021 73.5378 5.1632 80.7197 10.9385Z" fill="#00366D"/>
<path d="M84.107 84.0877C78.3629 85.996 71.2711 87.411 62.8712 88.2355C57.3938 88.772 51.3543 89.0564 44.7778 89.0564C36.4464 89.0564 27.5888 88.5704 19.2286 87.6018C19.1529 86.6909 20.1547 83.7996 20.7313 82.8635C30.641 84.725 42.0931 85.6143 53.8011 84.9122C63.0947 84.3613 72.5468 82.8023 81.5088 79.9326C82.2079 80.5087 83.9268 83.1155 84.107 84.0877Z" fill="#FF5E14"/>
<path d="M84.107 84.0874C81.235 86.8562 78.0314 89.2794 74.5612 91.2957C67.2315 95.5588 58.7163 98 49.6282 98C38.1689 98 27.6213 94.1222 19.2322 87.6016C27.5924 88.5701 36.4536 89.0562 44.7814 89.0562C51.3615 89.0562 57.3974 88.7717 62.8748 88.2353C71.2711 87.4107 78.3629 85.9957 84.107 84.0874Z" fill="#00366D"/>
<path d="M98.7266 60.187C98.7266 60.187 95.1879 63.4095 93.4762 64.1692C93.4762 64.1692 88.6042 53.76 62.5541 45.5759C36.504 37.3918 78.2548 40.87 78.2548 40.87L95.487 53.4755L98.7266 60.187Z" fill="#FF5E14"/>
<path d="M48.5795 42.3503C37.9707 39.6822 30.0428 37.7595 30.0428 31.5054C30.1329 25.8705 37.3545 24.0774 44.6625 22.5508C38.7382 24.3547 34.8752 27.4871 34.8752 31.4658C34.8752 36.5786 39.5923 39.6678 48.5795 42.3503Z" fill="#FF5E14"/>
<path d="M99.2455 53.0545C99.2455 55.2941 99.0978 57.4976 98.8023 59.6471C98.7843 59.8272 98.7591 60.0072 98.7266 60.1872C97.7789 59.0927 96.6149 58.0557 95.2312 57.0727C89.0763 52.6765 78.4855 49.1623 62.5541 45.5726L52.284 43.2214C50.9831 42.9261 49.7471 42.6417 48.5759 42.3465C39.5923 39.6676 34.8716 36.5748 34.8716 31.4584C34.8716 27.4833 38.7346 24.3473 44.6553 22.5434C47.7399 21.9025 51.2354 21.5532 54.9398 21.5532C55.293 21.5532 55.6533 21.5568 56.0173 21.5604C60.0064 21.6108 64.6802 21.9529 69.5775 22.619C77.3972 23.6956 85.8043 25.6039 92.7736 28.5455C94.5213 31.6096 95.9483 34.8789 97.0149 38.3066C98.4636 42.9657 99.2455 47.9201 99.2455 53.0545Z" fill="#00366D"/>
<path d="M27.6429 60.0033L11.6899 46.8901L1.23602 38.2992V35.0695C1.23602 35.0695 4.1549 33.4204 6.04317 32.5707C6.31343 32.4519 6.55848 32.3439 6.77109 32.2646C6.77109 32.2646 16.1656 45.2051 40.6049 53.742C62.9253 61.5408 27.6429 60.0033 27.6429 60.0033Z" fill="#FF5E14"/>
<path d="M68.7847 67.1827C68.7847 73.1236 60.3487 77.6171 44.7562 77.6171C43.1021 77.6171 41.3544 77.5667 39.5346 77.4623C34.5113 77.1887 28.9402 76.5478 23.2898 75.6296C17.9853 74.7799 12.6269 73.6781 7.56747 72.4215C2.76753 64.7955 0 55.7761 0 46.105C0 42.3065 0.42522 38.6159 1.23602 35.0693C2.82158 38.3098 5.81254 41.0823 10.0791 43.545C17.0304 47.5525 27.3834 50.7282 40.6049 53.7418L49.8876 55.8409C63.0947 58.7826 68.7847 61.4002 68.7847 67.1827Z" fill="#00366D"/>
<g opacity="0.3">
<path opacity="0.3" d="M80.7197 16.0298C71.0297 13.8479 61.4298 13.135 52.6119 13.279C52.2335 11.7632 52.0173 10.3014 51.9741 8.91875C51.8588 5.51262 52.7633 2.58897 54.8101 0.543849C54.8966 0.457435 54.9831 0.378223 55.0695 0.29541C55.0695 0.29541 55.0695 0.29541 55.0731 0.29541C64.7199 1.35037 73.5378 5.16336 80.7197 10.9387C80.9034 12.1701 80.7197 15.1765 80.7197 16.0298Z" fill="white"/>
<path opacity="0.3" d="M97.0149 38.31C96.5645 39.2893 95.9627 40.1679 95.206 40.9276C91.988 44.1429 86.5899 44.5389 80.5719 42.573C79.1017 42.0906 77.5918 41.4677 76.0675 40.7079C71.9738 38.6736 67.7757 35.6672 63.9163 31.811C60.6478 28.5525 57.992 25.0455 56.0173 21.5674C60.0064 21.6178 64.6802 21.9598 69.5775 22.6259C77.3972 23.7025 85.8043 25.6108 92.7736 28.5525C94.5213 31.6129 95.9483 34.8822 97.0149 38.31Z" fill="white"/>
</g>
<g opacity="0.3">
<path opacity="0.3" d="M23.2934 75.6299C17.989 74.7802 12.6305 73.6784 7.57107 72.4218C2.76753 64.7958 0 55.7764 0 46.1053C0 42.3067 0.42522 38.6161 1.23602 35.0696C1.23602 35.0696 4.1549 33.4205 6.04316 32.5708C7.00171 35.9013 8.30259 39.6207 10.0791 43.5453C10.5764 44.6507 11.1134 45.7632 11.6899 46.8974C16.9475 57.2058 25.5276 68.4684 39.5346 77.4626C34.5149 77.1889 28.9438 76.5444 23.2934 75.6299Z" fill="white"/>
<path opacity="0.3" d="M74.5576 91.2958C67.2279 95.5589 58.7127 98 49.6246 98C38.1653 98 27.6177 94.1222 19.2286 87.6016C19.1529 86.6907 20.1547 83.7994 20.7313 82.8633C30.641 84.7248 42.0931 85.6141 53.8011 84.912C56.6623 86.1146 59.6785 87.2236 62.8748 88.2353C66.5361 89.3983 70.4279 90.4245 74.5576 91.2958Z" fill="white"/>
</g>
</g>
<defs>
<clipPath id="clip0">
<rect width="277.358" height="98" fill="white"/>
</clipPath>
</defs>
</svg>
